<svg width="152" height="28" viewBox="0 0 152 28" fill="none" xmlns="http://www.w3.org/2000/svg">
<path d="M27.3266 12.7785V14.9032C27.3266 15.9404 28.1522 16.7903 29.189 16.8548V16.8642H45.3394V20.6336H28.6994C25.4818 20.6336 22.8738 18.0682 22.8738 14.9032V7.83826C22.8738 4.67327 25.4818 2.10791 28.6994 2.10791H39.9874C43.205 2.10791 45.813 4.67327 45.813 7.83826V11.4801C45.813 12.1962 45.2226 12.777 44.4946 12.777H27.3266V9.77565H41.0914C41.2642 9.77565 41.405 9.63716 41.405 9.46718V7.83826C41.405 6.75703 40.5138 5.8804 39.4146 5.8804H29.317C28.2178 5.8804 27.3266 6.75703 27.3266 7.83826V9.77723V12.7785Z" fill="white"/>
<path d="M71.6508 22.7709V11.3684H71.6476V7.83986C71.6476 4.67329 69.0444 2.11108 65.8236 2.11108H53.8028C50.5836 2.11108 47.9724 4.67172 47.9724 7.83986V14.9032C47.9724 18.0667 50.5836 20.632 53.8028 20.632H67.1964V27.1509H74.0908V22.7709H71.6508ZM67.1948 16.8658H54.2892V16.8548C53.2508 16.7903 52.4268 15.9388 52.4268 14.9032V7.83986C52.4268 6.75706 53.318 5.87728 54.4188 5.87728H65.2076C66.3036 5.87728 67.1948 6.75706 67.1948 7.83986V16.8658Z" fill="white"/>
<path d="M11.7631 2.10791C4.13908 2.10791 0.327881 5.85522 0.327881 13.3514V20.6273H4.78388V14.3791C4.78388 9.13038 7.44948 6.50364 12.7903 6.50364H20.6207V2.10791H11.7631Z" fill="white"/>
<path d="M151.381 3.57484L146.995 0.902463C146.645 0.73721 146.24 0.982729 146.24 1.3636V2.11275H131.411C127.695 2.11275 125.727 4.04857 125.727 7.70302C125.727 11.3591 127.695 13.2949 131.411 13.2949H140.568C141.717 13.2949 142.248 13.7182 142.33 14.7381V14.8121C142.355 15.0088 142.367 15.2118 142.355 15.4022C142.336 16.2191 141.656 16.8643 140.826 16.8643H123.229C123.455 16.2505 123.579 15.5927 123.579 14.8986V14.0566V7.83995C123.579 4.67024 120.968 2.11432 117.739 2.11432H105.722C102.504 2.11432 99.9011 4.67024 99.9011 7.83995V11.3669H99.8947V16.8659H97.4211C97.6451 16.2521 97.7715 15.5943 97.7715 14.9002V14.0582V7.83995C97.7715 4.67653 95.1603 2.11432 91.9443 2.11432H79.9139C76.6963 2.11432 74.0931 4.67024 74.0931 7.83995V11.3669H74.0867V15.152C74.0867 18.1754 76.5795 20.6321 79.6579 20.6321H99.8963V25.8242H104.355V20.6321H140.571C144.288 20.6321 146.256 18.6963 146.256 15.0355C146.256 11.3795 144.288 9.44998 140.571 9.44998H131.415C130.152 9.44998 129.64 8.94636 129.64 7.7046C129.64 6.46284 130.152 5.95921 131.415 5.95921H146.24V6.70836C146.24 7.08923 146.647 7.33474 146.995 7.1632L151.381 4.49711C151.768 4.30668 151.768 3.76528 151.381 3.57484ZM80.5619 16.8659C79.4435 16.8659 78.5443 15.9751 78.5443 14.875V7.83995C78.5443 6.75872 79.4371 5.88052 80.5363 5.88052H91.3171C92.4163 5.88052 93.3091 6.75242 93.3091 7.83522V14.0598V14.9018C93.3091 15.9405 92.4787 16.7935 91.4483 16.8549V16.8675H80.5619V16.8659ZM104.354 16.8659V7.83995C104.354 6.75872 105.24 5.88052 106.339 5.88052H117.127C118.232 5.88052 119.119 6.75872 119.119 7.83995V14.0582V14.9002C119.119 15.9389 118.288 16.7919 117.258 16.8533V16.8659H104.354Z" fill="url(#paint0_linear_58_693)"/>
<path opacity="0.3" d="M97.7694 14.0581V14.9001C97.7694 15.5942 97.6446 16.252 97.419 16.8658H91.4478V16.8532C92.4782 16.7919 93.3086 15.9373 93.3086 14.9001V14.0581H97.7694Z" fill="url(#paint1_linear_58_693)"/>
<path opacity="0.3" d="M123.579 14.0581V14.9001C123.579 15.5942 123.454 16.252 123.229 16.8658H117.258V16.8532C118.288 16.7919 119.118 15.9373 119.118 14.9001V14.0581H123.579Z" fill="url(#paint2_linear_58_693)"/>
<defs>
<linearGradient id="paint0_linear_58_693" x1="151.053" y1="13.75" x2="74.2613" y2="12.567" gradientUnits="userSpaceOnUse">
<stop stop-color="#F1B2A8"/>
<stop offset="0.5321" stop-color="#EC57A8"/>
<stop offset="1" stop-color="#5B5AF7"/>
</linearGradient>
<linearGradient id="paint1_linear_58_693" x1="151.013" y1="16.302" x2="74.2214" y2="15.119" gradientUnits="userSpaceOnUse">
<stop stop-color="#F1B2A8"/>
<stop offset="0.5321" stop-color="#EC57A8"/>
<stop offset="1" stop-color="#5B5AF7"/>
</linearGradient>
<linearGradient id="paint2_linear_58_693" x1="151.019" y1="15.9174" x2="74.2276" y2="14.7344" gradientUnits="userSpaceOnUse">
<stop stop-color="#F1B2A8"/>
<stop offset="0.5321" stop-color="#EC57A8"/>
<stop offset="1" stop-color="#5B5AF7"/>
</linearGradient>
</defs>
</svg>
