<svg width="42" height="42" viewBox="0 0 42 42" fill="none" xmlns="http://www.w3.org/2000/svg">
<rect x="0.5" y="0.5" width="41" height="41" rx="7.5" stroke="url(#paint0_linear_58_3281)"/>
<path fill-rule="evenodd" clip-rule="evenodd" d="M11.6064 14H30.3932C31.0022 14 31.5004 14.4982 31.5004 15.1072V15.2262C31.5004 15.8352 31.0022 16.3333 30.3932 16.3333H11.6064C10.9974 16.3333 10.5004 15.8352 10.5004 15.2262V15.1072C10.5004 14.4982 10.9974 14 11.6064 14ZM30.3932 19.8333H11.6064C10.9974 19.8333 10.5004 20.3315 10.5004 20.9405V21.0595C10.5004 21.6685 10.9974 22.1667 11.6064 22.1667H30.3932C31.0022 22.1667 31.5004 21.6685 31.5004 21.0595V20.9405C31.5004 20.3315 31.0022 19.8333 30.3932 19.8333ZM30.3932 25.6667H11.6064C10.9974 25.6667 10.5004 26.1648 10.5004 26.7738V26.8928C10.5004 27.5018 10.9974 28 11.6064 28H30.3932C31.0022 28 31.5004 27.5018 31.5004 26.8928V26.7738C31.5004 26.1648 31.0022 25.6667 30.3932 25.6667Z" fill="url(#paint1_linear_58_3281)"/>
<defs>
<linearGradient id="paint0_linear_58_3281" x1="3" y1="3.19311e-09" x2="40.5" y2="42" gradientUnits="userSpaceOnUse">
<stop stop-color="#F1B2A8"/>
<stop offset="0.5" stop-color="#EC57A8"/>
<stop offset="1" stop-color="#5B5AF7"/>
</linearGradient>
<linearGradient id="paint1_linear_58_3281" x1="21.0004" y1="14" x2="21.0004" y2="28" gradientUnits="userSpaceOnUse">
<stop stop-color="#F1B2A8"/>
<stop offset="0.48" stop-color="#EC57A8"/>
<stop offset="1" stop-color="#5B5AF7"/>
</linearGradient>
</defs>
</svg>
